<?xml version="1.0" standalone="no"?>
<!DOCTYPE svg PUBLIC "-//W3C//DTD SVG 20010904//EN"
 "http://www.w3.org/TR/2001/REC-SVG-20010904/DTD/svg10.dtd">
<svg version="1.0" xmlns="http://www.w3.org/2000/svg"
 width="361.000000pt" height="329.000000pt" viewBox="0 0 361.000000 329.000000"
 preserveAspectRatio="xMidYMid meet">

	<g transform="translate(0.000000,329.000000) scale(0.100000,-0.100000)"
	fill="#31afff" stroke="none">
		<path d="M471 2824 c-28 -36 -28 -111 -1 -165 12 -22 27 -42 35 -45 14 -6 91
-94 81 -94 -16 0 -125 107 -143 142 l-23 41 0 -39 c0 -21 11 -61 24 -89 24
-52 120 -179 175 -229 22 -21 31 -39 31 -60 0 -51 55 -236 104 -348 9 -21 12
-38 7 -38 -5 0 -14 14 -21 30 -7 17 -16 30 -21 30 -13 0 -10 -94 7 -190 8 -47
18 -132 23 -190 13 -152 15 -157 75 -186 l51 -26 -47 44 c-62 56 -70 88 -31
127 16 16 53 37 83 47 43 16 59 27 82 64 19 30 36 45 51 46 12 0 44 4 70 8 33
6 52 5 60 -3 6 -6 21 -11 32 -11 30 0 55 -30 62 -73 4 -30 -2 -50 -41 -121
-25 -47 -44 -86 -42 -86 3 0 23 28 46 63 48 72 47 84 11 -148 -36 -223 -96
-362 -213 -487 l-59 -63 -4 -80 c-2 -44 -13 -109 -24 -145 -21 -68 -73 -160
-91 -160 -5 0 -10 -6 -10 -13 0 -17 77 -137 87 -137 26 0 111 83 148 144 l41
70 63 -3 c61 -2 63 -2 105 41 64 64 86 143 85 302 -2 171 -3 174 -67 198 -29
11 -51 22 -49 25 3 2 52 -5 109 -16 190 -37 262 -45 438 -45 160 -1 344 17
355 33 2 4 -3 33 -11 66 -26 112 -11 100 39 -31 39 -101 94 -198 154 -269 32
-39 172 -155 187 -155 3 0 -5 24 -18 53 -13 28 -26 70 -30 92 -15 87 -17 95
-34 93 -36 -3 -50 3 -55 21 -2 11 -1 23 3 28 5 4 10 19 12 33 3 23 7 25 67 28
54 3 67 0 86 -18 15 -14 25 -18 30 -11 8 14 55 15 55 1 0 -15 -37 -31 -57 -24
-10 4 12 -22 48 -57 60 -58 69 -72 93 -144 24 -76 25 -88 20 -225 -6 -154 -11
-170 -59 -170 -40 0 -57 32 -62 122 -4 66 -10 91 -30 121 l-24 39 -20 -23
c-10 -12 -19 -28 -19 -36 0 -8 -4 -11 -10 -8 -5 3 -10 15 -10 25 0 32 -58 35
-193 10 -67 -12 -139 -29 -160 -38 -52 -21 -55 -10 -8 27 60 48 101 116 101
168 0 41 -2 44 -23 38 -54 -17 -93 -42 -144 -94 -46 -47 -52 -51 -39 -25 26
53 66 94 117 120 45 22 49 28 49 59 0 45 -15 45 -72 2 -30 -23 -55 -56 -83
-111 -39 -76 -42 -79 -87 -91 -91 -23 -140 -81 -154 -183 -8 -61 4 -82 47 -82
15 0 31 -4 34 -10 8 -13 64 -13 104 1 45 16 50 4 10 -20 -55 -32 -59 -38 -49
-70 11 -38 39 -76 68 -92 33 -18 27 -33 -20 -49 -25 -9 -43 -21 -43 -30 0 -12
18 -16 89 -18 97 -3 136 4 101 18 -14 6 1 9 45 9 74 1 94 9 80 31 -16 25 -11
77 10 101 l19 24 -11 -37 c-15 -51 0 -81 54 -110 l43 -22 -42 -6 c-49 -7 -64
-17 -44 -30 22 -13 303 -13 337 1 16 6 41 13 56 14 27 3 88 40 88 54 0 5 13
11 29 14 17 4 44 19 62 35 l33 29 -32 -5 c-35 -5 -38 3 -21 41 l11 25 46 -20
c82 -37 161 -7 201 75 32 66 43 147 39 289 l-3 130 -32 26 c-109 91 -137 120
-163 166 -22 38 -30 64 -30 101 0 123 -47 341 -92 428 -17 34 -23 38 -46 33
-26 -6 -26 -6 -7 10 68 56 237 104 363 104 92 0 88 4 115 -130 17 -89 69 -292
72 -288 2 2 -3 75 -11 163 -7 88 -13 182 -14 209 0 48 1 48 28 43 15 -2 36 -1
47 3 11 4 26 3 33 -3 10 -8 16 -8 20 0 4 6 32 18 63 26 69 21 105 48 114 88 9
41 0 47 -31 18 -23 -21 -36 -24 -123 -27 -76 -3 -100 -1 -109 11 -10 12 -21
13 -54 5 -23 -5 -48 -6 -57 -2 -11 5 0 11 34 19 50 11 63 27 46 54 -7 11 -15
11 -41 2 -38 -13 -140 -15 -140 -2 0 4 29 11 65 14 36 4 74 11 85 17 20 10 19
12 -5 67 -1 1 -23 -4 -50 -12 -26 -8 -67 -15 -89 -14 -38 0 -36 2 32 21 41 11
76 27 79 35 4 10 -15 36 -53 72 -32 31 -76 75 -97 98 -47 51 -92 73 -150 73
-54 0 -71 -24 -37 -52 17 -14 18 -18 7 -18 -25 0 -28 -15 -9 -51 l17 -34 6 40
c3 22 7 32 8 23 1 -19 19 -33 28 -24 4 3 0 17 -7 31 -11 20 -11 27 0 40 17 20
33 19 53 -3 24 -26 21 -47 -10 -72 -24 -19 -25 -22 -11 -37 15 -14 15 -18 2
-39 -35 -53 11 -130 120 -203 l40 -26 -110 -8 c-60 -4 -163 -17 -229 -28 -165
-29 -159 -29 -162 6 -1 16 -8 40 -15 53 -24 45 -149 92 -233 86 -24 -1 -52 5
-71 16 -23 13 -35 15 -43 7 -8 -8 -11 -4 -11 13 0 14 -7 34 -15 44 -14 19 -15
19 -15 -7 0 -28 -19 -77 -30 -77 -4 0 -5 21 -2 48 3 37 0 53 -16 72 -26 32
-34 24 -21 -21 8 -27 7 -42 -7 -74 l-18 -40 -6 62 c-6 56 -30 113 -48 113 -4
0 -5 -29 -4 -65 3 -42 0 -65 -7 -65 -6 0 -11 13 -11 29 0 42 -20 91 -37 91
-10 0 -14 -9 -12 -32 2 -18 -2 -42 -8 -53 -10 -17 -12 -13 -18 28 -7 45 -8 47
-25 32 -23 -21 -33 -5 -20 30 37 99 -39 53 -128 -77 -36 -53 -38 -58 -18 -58
8 0 17 14 21 31 9 39 41 37 38 -4 -1 -15 3 -27 8 -27 6 0 7 -5 4 -11 -4 -6
-13 -8 -21 -5 -8 3 -24 1 -36 -4 -16 -6 3 -8 64 -8 92 2 118 -8 118 -45 0 -19
-4 -19 -77 -13 -104 9 -308 51 -379 77 -53 20 -139 81 -273 194 -52 44 -60 56
-66 95 -3 25 -13 86 -21 135 -8 50 -17 127 -19 172 -6 140 -62 225 -187 288
-74 37 -121 43 -176 24 -37 -13 -83 5 -183 70 -74 48 -109 52 -138 15z m95
-33 c-4 -6 -16 -11 -26 -11 -19 0 -19 1 -3 20 17 20 42 12 29 -9z m228 -89 c3
-5 8 -32 12 -60 8 -66 -8 -69 -38 -8 -18 37 -19 47 -8 60 14 18 26 20 34 8z
m271 -212 c4 -6 -6 -10 -22 -10 -74 0 -243 -157 -243 -226 0 -52 124 -73 200
-34 48 24 63 25 81 3 13 -15 11 -16 -12 -10 -18 5 -34 1 -50 -11 -44 -34 -87
-45 -150 -39 -107 9 -133 51 -89 142 50 103 254 236 285 185z m1032 -602 c-3
-8 -6 -5 -6 6 -1 11 2 17 5 13 3 -3 4 -12 1 -19z m431 -128 c55 -25 68 -38 80
-83 9 -32 8 -37 -7 -37 -9 0 -21 4 -26 9 -14 12 -160 57 -215 66 -96 14 -104
27 -32 49 68 21 149 19 200 -4z m-422 -5 l29 -15 -42 0 c-48 0 -75 8 -67 21 8
14 48 11 80 -6z m124 -4 c0 -17 -19 -22 -57 -14 l-38 7 30 7 c45 10 65 10 65
0z m-242 -51 c-7 -10 -14 -17 -17 -15 -4 4 18 35 25 35 2 0 -1 -9 -8 -20z
m632 -80 c0 -9 -51 -40 -66 -40 -5 0 54 46 64 49 1 1 2 -3 2 -9z m-100 -33
c13 -5 13 -6 -1 -6 -8 -1 -24 6 -35 15 -19 15 -19 15 1 6 11 -5 27 -12 35 -15z
m-1022 -76 c14 -24 21 -27 36 -19 10 6 37 7 63 3 33 -5 51 -2 69 10 34 22 31
0 -6 -36 -22 -23 -36 -29 -52 -24 -22 6 -22 6 2 -14 30 -25 72 -35 102 -25 22
6 23 6 5 -13 -21 -25 -103 -38 -141 -23 -25 9 -37 -2 -16 -15 20 -12 10 -57
-19 -86 -37 -36 -60 -38 -32 -3 31 39 26 60 -24 107 -36 34 -47 52 -54 91 -5
28 -17 56 -27 63 -16 11 -12 13 29 13 41 0 49 -4 65 -29z m1251 -555 c-14
-120 -14 -138 5 -174 18 -34 42 -56 118 -107 84 -55 101 -81 106 -159 5 -69
-12 -117 -48 -136 -29 -16 -40 -4 -40 42 0 37 -6 48 -64 107 -120 125 -144
212 -108 398 12 59 25 126 29 148 14 77 16 -11 2 -119z m-1564 -133 c-9 -110
-23 -168 -47 -190 -21 -18 -21 -18 -14 7 4 14 17 78 29 143 12 64 25 117 30
117 4 0 5 -35 2 -77z m735 -378 c0 -22 -30 -40 -48 -29 -25 16 -26 33 0 43 27
10 48 4 48 -14z m870 -245 c0 -5 -2 -10 -4 -10 -3 0 -8 5 -11 10 -3 6 -1 10 4
10 6 0 11 -4 11 -10z"/>
		<path d="M1061 1609 c-27 -37 -18 -55 9 -19 17 22 26 50 17 50 -2 0 -13 -14
-26 -31z"/>
		<path d="M1206 1623 c-6 -14 -5 -15 5 -6 7 7 10 15 7 18 -3 3 -9 -2 -12 -12z"/>
		<path d="M895 1563 c-28 -6 -65 -25 -65 -34 0 -3 17 -1 38 7 20 7 45 13 55 14
9 0 17 5 17 10 0 10 -10 11 -45 3z"/>
		<path d="M1495 493 c-27 -7 -46 -23 -39 -34 3 -5 2 -8 -3 -7 -4 2 -24 -14 -43
-35 -32 -34 -44 -39 -129 -56 -51 -11 -105 -28 -120 -38 -81 -59 -80 -209 1
-255 30 -16 203 -15 224 2 20 18 17 42 -11 80 -50 68 -39 142 27 176 31 16 32
16 55 -12 19 -24 23 -26 23 -10 0 33 41 93 81 117 48 30 49 46 4 65 -36 15
-37 15 -70 7z m65 -32 c0 -6 -4 -13 -10 -16 -5 -3 -10 1 -10 9 0 9 5 16 10 16
6 0 10 -4 10 -9z"/>
		<path d="M1636 446 c3 -9 11 -16 16 -16 13 0 5 23 -10 28 -7 2 -10 -2 -6 -12z"/>
		<path d="M1620 365 c-7 -9 -10 -18 -7 -21 3 -3 10 4 17 15 13 25 8 27 -10 6z"/>
		<path d="M675 319 c-12 -19 4 -55 30 -67 30 -14 31 -4 4 42 -23 40 -25 41 -34
25z"/>
		<path d="M1549 237 c-18 -24 -34 -67 -25 -67 7 0 49 81 44 85 -2 2 -10 -7 -19
-18z"/>
		<path d="M1442 68 c3 -7 17 -15 33 -16 25 -3 27 -2 16 12 -16 19 -55 22 -49 4z"/>
	</g>
</svg>




