<?xml version="1.0" standalone="no"?>
<!DOCTYPE svg PUBLIC "-//W3C//DTD SVG 20010904//EN"
 "http://www.w3.org/TR/2001/REC-SVG-20010904/DTD/svg10.dtd">
<svg version="1.0" xmlns="http://www.w3.org/2000/svg"
 width="680.000000pt" height="540.000000pt" viewBox="0 0 340.000000 270.000000"
 preserveAspectRatio="xMidYMid meet">

<g transform="translate(0.000000,270.000000) scale(0.100000,-0.100000)"
fill="#31afff" stroke="none">
<path d="M1145 2436 c-69 -22 -127 -56 -181 -108 -65 -61 -104 -121 -141 -213
-25 -64 -27 -81 -27 -210 0 -127 3 -147 27 -214 45 -123 130 -259 229 -367
l40 -43 -21 -44 c-43 -88 -19 -159 83 -254 61 -58 77 -68 99 -64 4 1 60 -40
125 -91 126 -98 269 -196 343 -234 52 -26 57 -34 64 -107 7 -62 -6 -92 -55
-125 -26 -17 -43 -22 -67 -17 -17 3 -34 1 -38 -5 -3 -5 -20 -10 -36 -10 -33 0
-44 -17 -35 -55 5 -18 13 -25 32 -25 13 0 27 7 30 15 4 8 13 15 22 15 8 0 24
8 35 17 10 10 40 29 65 43 61 33 74 59 70 143 -3 53 -1 66 10 62 53 -20 127
-36 147 -31 13 3 33 20 46 37 12 17 32 34 45 39 13 5 24 17 24 26 0 9 10 24
23 34 31 26 13 55 -34 55 -29 0 -34 -4 -37 -25 -2 -14 -6 -32 -9 -40 -3 -8 -7
-24 -8 -34 -1 -11 -16 -32 -34 -48 -35 -31 -35 -31 -132 3 -56 20 -57 22 -79
82 -21 60 -149 314 -210 417 -16 28 -30 57 -30 64 0 19 -92 156 -126 188 -61
56 -158 65 -240 22 l-49 -26 -43 49 c-23 26 -67 84 -97 128 -168 250 -196 467
-87 678 92 178 248 269 436 253 146 -12 274 -74 342 -165 l35 -46 69 68 c78
76 161 121 259 139 127 24 269 -29 382 -141 152 -152 202 -368 132 -571 -16
-47 -47 -113 -68 -145 -50 -78 -231 -257 -322 -319 l-72 -48 -36 22 c-43 27
-117 30 -161 7 -87 -45 -116 -135 -73 -223 52 -109 209 -121 282 -22 24 32 35
125 18 156 -10 19 -2 27 87 94 282 211 412 419 412 658 0 226 -121 425 -317
522 -76 38 -93 42 -174 46 -140 7 -242 -29 -354 -124 l-62 -52 -43 43 c-52 53
-133 98 -216 119 -74 19 -242 20 -299 2z m192 -1147 c32 -16 55 -39 93 -96 27
-41 50 -79 50 -84 0 -5 6 -9 14 -9 16 0 82 -112 174 -296 73 -146 94 -194 82
-194 -29 0 -249 149 -385 260 -90 74 -237 224 -249 254 -5 13 -6 35 -2 49 13
55 108 135 160 137 11 0 39 -9 63 -21z m687 -160 c30 -35 32 -58 11 -98 -42
-83 -165 -49 -165 46 0 80 102 114 154 52z"/>
<path d="M1526 2120 c-59 -71 -33 -233 43 -261 61 -24 111 38 111 137 0 126
-90 199 -154 124z"/>
<path d="M1843 2059 c-42 -26 -83 -110 -83 -166 0 -57 37 -98 78 -89 104 25
180 197 115 261 -21 21 -72 18 -110 -6z"/>
<path d="M1294 1979 c-29 -32 -26 -131 5 -186 31 -54 79 -81 116 -65 30 14 45
48 45 105 -1 116 -108 210 -166 146z"/>
<path d="M1997 1829 c-68 -36 -116 -144 -88 -197 36 -67 163 -11 205 90 21 50
20 84 -4 108 -25 25 -64 25 -113 -1z"/>
<path d="M1562 1780 c-38 -20 -82 -54 -120 -94 -74 -79 -104 -140 -100 -198 2
-35 8 -46 37 -65 40 -27 71 -29 136 -7 67 23 131 8 193 -47 43 -37 49 -40 100
-37 47 3 58 7 76 31 52 71 3 274 -92 379 -68 75 -133 86 -230 38z m212 -226
c3 -8 10 -13 16 -9 13 8 46 -10 54 -30 12 -33 -20 -63 -86 -79 -24 -5 -28 -1
-48 40 -18 37 -20 50 -11 70 13 28 65 34 75 8z"/>
</g>
</svg>
