<?xml version="1.0" encoding="utf-8"?>
<svg version="1.1" id="Livello_1" xmlns="http://www.w3.org/2000/svg" xmlns:xlink="http://www.w3.org/1999/xlink" x="0px" y="0px"
	 width="400px" height="400px" viewBox="0 0 400 400" style="enable-background:new 0 0 400 400;" xml:space="preserve">
<style type="text/css">
	.st0{fill:#31afff;}
</style>
<path class="st0" d="M238.4,34.8c1,0,2.1,0,3.1,0c1.7,0.6,3.5,0.8,5,1.7c4.1,2.5,8.1,5.3,12,8.1c1.1,0.8,1.9,1,3.1,0.3
	c6.5-3.6,13-2.9,19.3,0.2c11.7,5.8,17.4,16,19.5,28.3c2,12,3.5,24.2,5,36.3c0.5,4.2,0.7,8.3,5.1,10.5c0.2,0.1,0.4,0.4,0.6,0.6
	c2.8,3.8,5.6,7.7,8.3,11.6c9.6,13.5,17.6,27.9,25.1,42.7c5,9.8,5.7,20,4.2,30.6c-0.5,3.1-1.7,5.6-5.3,6.4c-1.6,0.3-3,1.2-4.6,1.9
	c0.4,0.9,0.7,1.7,1,2.4c6.1,11.5,12.3,22.9,18.4,34.3c3,5.6,6.2,11.2,8.8,17c9.6,21,13.7,43.3,16.4,66c0.7,6.3,1.3,12.7,2.1,19.4
	c-3.1,0.4-6.5,0.7-9.8,1.1c0.5,4,1.1,7.8,1.3,11.6c0.5,11.5,0.8,23.1,1.3,34.6c0.7,16.8,1.7,33.6,0.8,50.4
	c-0.2,4.4-0.1,8.9,0.2,13.4c0.7,11,1.5,22,0.1,33c-0.4,2.9-1.2,5.9-1.1,8.8c0.2,8.9,0.8,17.8,1.2,26.8c0.4,7.9,0.8,15.8,1.4,23.6
	c0.3,3.9,0.4,7.7-1.1,11.2c-1.2,2.8-0.9,5.1,0,7.9c2.2,7.3,4.5,14.7,6,22.1c1.2,6.1-2.3,11.7-8.1,13.9c-2.9,1.1-6,1.5-9.1,1.9
	c-6.5,0.7-9.6-1.3-11.8-7.5c-0.4-1-0.8-2.1-0.9-3.2c-0.7-5.5-1.6-10.9-1.7-16.4c-0.1-3.6-1-6.1-4-7.9c-3.4-2-4.8-5.1-5.2-9.1
	c-0.9-11.6-2.2-23.1-3-34.7c-0.7-9.6-0.9-19.3-1.4-29c-0.5-9.5-1.3-19-1.7-28.5c-0.7-16.4-1.6-32.9-4.7-49.1
	c-3.4-17.7-7.5-35.4-11.2-53c-0.1-0.6-0.3-1.2-0.5-1.7c-0.2,0-0.4,0-0.6,0c-1.5,13.6-3.3,27.1-4.3,40.7c-0.7,9.6-1.2,19.3-0.2,28.8
	c1.5,15.2,2.1,30.4,1.9,45.7c-0.2,16.4-0.5,32.8-0.7,49.1c0,1.4-0.4,2.9-0.7,4.3c-0.4,1.8-1.1,3.5-1.1,5.3
	c-0.2,6.4-0.2,12.8-0.2,19.2c0,2.2-0.9,3.4-3.2,3.6c-2.4,0.2-4.9,0.7-7.3,0.7c-11,0.1-22,0.1-33.1,0c-9.4,0-18.8-0.1-28.1-0.3
	c-1.6,0-2.3,0.5-2.2,2.2c0.1,1.5,0,3.1,0,4.6c-1,0.1-1.7,0.2-2.4,0.3c0.8,2.9-0.3,5.1-2.8,6.3c-4.2,2.1-8.3,2.1-12.3-0.5
	c-2.3-1.5-2.8-3.6-1.8-6.2c-0.9-0.2-1.7-0.3-2.3-0.4c0-10,0-19.9,0-29.9c-0.7,0-1.5,0-2.2,0c-35.5,0-71,0-106.5,0
	c-31.3,0-62.7,0-94,0c-0.9,0-1.8-0.1-2.7-0.1c0-3.9,0-7.7,0-11.6c1,0,2.1,0.1,3.1,0.1c56.9,0.1,113.9,0.1,170.8,0.2
	c10.1,0,20.2-0.1,30.3-0.2c0.5,0,1-0.1,1.9-0.2c-7.1-10.3-14-20.3-20.7-30.1c-0.7,1.1-1.3,2.1-1.9,3c-0.2,2.9-1.6,4.9-5.1,5.3
	c-2.2,0.2-4.6-0.1-6.7-0.9c-2.2-0.8-2.9-2.8-2.1-5.2c-0.7-0.2-1.4-0.3-1.8-0.4c0-7.7,0-15.1,0-22.7c-1,0-1.8,0-2.6,0
	c-20.3,0-40.6,0-61,0c-33.9,0-67.9,0-101.8,0c-0.8,0-1.6,0.1-2.4,0.1c0-4,0-8,0-12.1c0.9,0.1,1.8,0.2,2.6,0.2c13.3,0,26.7,0,40,0
	c26.1,0,52.1,0,78.2,0c15,0,30.1,0,45.1,0c1.5,0,2.4,0,2.5-2.1c0.3-20.3,0.8-40.6,1.2-60.9c0.4-20.5,0.8-40.9,1.2-61.4
	c0.1-3.2,0-6.5,0-9.9c-0.9,0-1.8,0-2.6,0c-30.8,0.2-61.6,0.5-92.5,0.7c-25.2,0.2-50.5,0.4-75.7,0.6c0-24,0-48,0-71.9
	c0.6,0.1,1.2,0.2,1.8,0.2c15.8,0,31.6,0,47.4,0c0.8,0,1.6-0.1,2.5-0.2c0.2-9,5.5-15.8,9.9-23c-0.9-0.7-1.8-1.3-2.6-2.1
	c-2.2-1.9-1.8-3.9,1-4.7c1.1-0.3,2.2-0.5,3.3-0.6c3.3-0.3,7-3.9,7.6-7.5c-0.6-0.1-1.3-0.2-1.9-0.4c-1.3-0.5-2.6-1.2-3.8-1.7
	c1.1-0.9,2-2,3.2-2.6c4.1-2.1,8.1-4.2,9.9-8.7c0.1-0.3,0.3-0.5,0.5-0.7c6-8.8,12.1-17.7,18.1-26.6c4.1-6.1,6.7-12.7,6.6-20.2
	c0-2.2,0.3-4.5,0.4-6.7c0.3-6.1,1.1-12.1,3.8-17.8c0.3-0.7,0.2-1.7-0.1-2.4c-1.4-3-3-5.8-4.4-8.8c-0.3-0.6-0.5-1.6-0.2-2.2
	c2.1-4,3.1-8.6,7.1-11.4c-0.5-1-0.9-1.7-1.3-2.4c-3.8,2.5-5.6,6.2-7,10.1c-1,2.7-3,4.4-5.2,5.9c-1.5,1-2.7,0.8-3.4-0.9
	c-0.7-1.6-1.3-3.2-1.8-4.8c-1-3.4-0.7-3.6,2.2-5.6c3.4-2.3,6.6-4.8,10.1-6.9c5.3-3.3,11.3-5.8,16.7-0.5c3.4,3.3,7.2,4.1,11.5,3.5
	c0.5-0.1,1-0.1,1.6,0c3.2,0.3,5.7-0.6,7.8-3.4c2.1-2.9,5.5-4.4,9.3-3.3c5.3,1.4,9.8,3.9,12,9.4c1,2.3,2.5,4.4,3.7,6.6
	c0.3,0.5,0.5,1,0.7,1.5c-0.1,0.2-0.2,0.4-0.3,0.5c-1.2-0.4-2.6-0.6-3.5-1.4c-1.4-1.2-2.6-2.6-3.5-4.2c-1.4-2.4-2.7-4.8-6.7-5
	c0.8,1,1.1,1.8,1.6,2.1c2.8,1.5,3.8,3.6,3.3,6.8c-0.1,0.9,0,2,0.4,2.8c0.7,1.7,1.7,3.3,2.4,5c0.3,0.8,0.6,1.7,0.4,2.5
	c-0.4,2.1-1.2,4.1-1.5,6.2c-0.1,0.8,0.3,2.1,0.9,2.7c2.3,2.2,4.8,4.2,7.2,6.4c1.5,1.4,2.6,3,2,5.3c-0.3,1.2-0.8,2.5-0.8,3.8
	c0.1,4.8-3.3,7.4-6.2,10.3c-0.4,0.4-1.1,0.5-1.7,0.5c-3.9,0.5-7.8,1-11.9,1.5c-2.9,7-3.1,14.1,1.4,21c0.6-0.2,1-0.2,1.3-0.4
	c8.9-3.7,17.7-7.3,26.6-11.1c0.9-0.4,1.6-1.2,2.1-2.1c4.6-7.7,9.2-15.4,13.8-23.2c6.4-11.1,12.8-22.3,19.2-33.5
	c1.5-2.6,3.6-4.3,6.2-5.5c1.8-0.8,3.5-1.8,5.3-2.7c-0.7-1.6-1.4-2.9-2-4.4c-1.1,0.4-2,0.7-2.9,1c-3.3,1.4-6.5,2.9-9.8,4.3
	c-2.9,1.2-4,0.7-5.4-2.2c-1.7-3.4-3.5-6.7-5-10.2c-1.2-2.8-2.8-4.7-6.2-4.4c-0.3,0-0.7-0.2-1.1-0.2c-1.8-0.5-2.5-1.5-2-3.5
	c0.6-2.5,0.9-5.1,1-7.7c0.1-3.1-0.9-5.6-3.9-7.2c-0.9-0.5-1.7-1.6-1.9-2.5c-1.1-5.1-1.4-10.3-0.1-15.5c0.1-0.5,0.3-1.2,0.1-1.7
	c-1.9-3.9-0.5-7.4,1.9-10.3c5.8-7.2,13.2-12.2,22-15C229.2,36.1,233.9,35.7,238.4,34.8z M242.8,554.2c6.7,0.2,13-0.3,18.7-3.2
	c5.7-2.9,10.6-6.8,15.4-11c-2.9-1.5-2.8-1.5-2.5-4.6c0.4-3.7,0.9-7.4,1.1-11.1c0.4-9.5,1-19,1-28.6c0-14.5,0.2-29.1-0.9-43.5
	c-1.9-25.7-2.3-51.4-0.9-77.2c0.4-6.7,0.9-13.5,1.4-20.4c-3.2-0.4-6.4-0.7-9.5-1.1c0-0.6,0-1,0-1.3c0.9-13.4,1.8-26.7,2.9-40.1
	c1.2-14.1,1-27.9-4.3-41.3c-2.2-5.5-3.7-11.3-5.6-17c-4.8,1.1-9.6,2.3-14.4,3.4c-6.6,1.5-13.2,3.1-19.8,4.6c-3.1,0.7-4.5,0-5.5-2.4
	c-2-5.1-4-10.2-6.1-15.3c-0.3-0.8-1.3-1.6-2.1-1.8c-5.7-1.3-11.5-2.2-17.3-3.6c-3-0.7-5.6-0.4-8.1,1.2c-3.7,2.4-7.8,3.5-12.2,3.7
	c-1.1,0.1-2.3,0.3-3.7,0.5c1.9,5.6,0.6,10.5-1.3,15.5c-0.9,2.5-1.2,5.3-1.9,8.3c9.6,0,18.7,0,27.8,0c3.4,0,6.7-0.4,9.9,2
	c14.5,10.8,29.1,21.4,44,31.6c4.7,3.2,7.1,6.5,6.1,12.3c-0.5,3.1-0.1,6.3-0.1,9.8c-3.4,0-6.3,0-9.4,0
	C244.7,400.6,243.8,477.4,242.8,554.2z M202.3,338.1c0,1.1,0,1.7,0,2.4c-0.2,16.5-0.4,33-0.6,49.6c-0.4,31.7-0.8,63.4-1.1,95.1
	c0,1.2,0.4,2.5,1.1,3.5c4.7,7,9.6,14,14.4,21c1.7,2.5,3.5,5.1,5.3,7.6c0.1,0,0.3-0.1,0.4-0.1c1.2-59.7,2.4-119.3,3.5-179
	C217.5,338.1,210,338.1,202.3,338.1z M252.8,213.7c-5.1-10.7-10-21-15-31.5c-0.5,0.8-0.8,1.4-1.2,2c-5.6,9.5-11.5,18.8-19.1,26.9
	c-1.7,1.8-4.1,3.1-6.4,4.2c-2.2,1-4.7,1.4-7.4,2.1c2,1.1,3.7,1.9,5.3,3c1.6,1.1,3.2,1.2,5,0.8c6.6-1.4,13.3-2.6,19.9-3.8
	C240.2,216.2,246.4,215,252.8,213.7z M265,55.3c0.6,1.7,1.2,3.4,1.7,5.1c2.3,7.5,2.8,15.2-2.9,21.2c-3.2,3.4-2.7,6.1-1.6,9.6
	c0.3,0.8,0.5,1.7,0.8,2.6c2.3,7.8,7.9,12.1,15.4,14.6c0.5-2.7,1.3-5.2,1.5-7.7c1-13-0.8-25.7-5.7-37.8c-1-2.6-2.9-4.8-4.5-7.1
	C268.6,53.9,267,53.7,265,55.3z"/>
</svg>
